# xmcd
# 
# Track frame offsets:
#     150
#     14747
#     33304
#     51481
#     70943
#     90744
#     106678
#     126432
#     144989
#     163436
#     178745
#     192110
#     208014
#     227720
#     247469
#     261391
# 
# Disc length: 3693
# 
# Revision: 0
# Processed by: cddbd v1.5.2PL0 Copyright (c) Steve Scherf et al.
# Submitted via: fre:ac v1.0.17
# 
DISCID=f80e6b10
DTITLE=Bellamy Brothers - across the sea
DYEAR=2013
DGENRE=Country
TTITLE0=swiss american yodel - Bellamy Brothers, Oesch's Die Dritten
TTITLE1=rock - Bellamy Brothers, Gölä
TTITLE2=tear - Bellamy Brothers, Gayle Chrystal and Nina
TTITLE3=butterfly - Carter Carlene, Ast Florian
TTITLE4=36 cents - Bacon Brothers, Ash Kristin
TTITLE5=light is shining on you - Bellamy J. and N.
TTITLE6=bobby mcGee - Kristofferson Kris and Chor alle Gäste
TTITLE7=banderas - Bellamy Brothers, Natacha 
TTITLE8=other side of the world - Bellamy Brothers, Jimenez Flaco
TTITLE9=kiss me now - Carter Carlene, Cole Katie
TTITLE10=delta dawn - Bellamy Brothers, Ash Kristin 
TTITLE11=coming home to you - Bellamy Brothers, Nina 
TTITLE12=borderline down - Bellamy Brothers, Carmen Phil 
TTITLE13=bahama mama - Bellamy Brothers, Reber Peter 
TTITLE14=i'll be missing you - Gayle Crystal
TTITLE15=achey breaky - Bellamy Brothers and Gölä
EXTD=
EXTT0=
EXTT1=
EXTT2=
EXTT3=
EXTT4=
EXTT5=
EXTT6=
EXTT7=
EXTT8=
EXTT9=
EXTT10=
EXTT11=
EXTT12=
EXTT13=
EXTT14=
EXTT15=
PLAYORDER=
